<!-- board.svg -->
<svg width="450" height="450" xmlns="http://www.w3.org/2000/svg">
    <rect width="100%" height="100%" fill="tan" />
    <!-- Draw grid lines -->
    <g stroke="black">
        <!-- Horizontal lines -->
        <line x1="25" y1="25" x2="425" y2="25"/>
        <line x1="25" y1="75" x2="425" y2="75"/>
        <line x1="25" y1="125" x2="425" y2="125"/>
        <line x1="25" y1="175" x2="425" y2="175"/>
        <line x1="25" y1="225" x2="425" y2="225"/>
        <line x1="25" y1="275" x2="425" y2="275"/>
        <line x1="25" y1="325" x2="425" y2="325"/>
        <line x1="25" y1="375" x2="425" y2="375"/>
        <line x1="25" y1="425" x2="425" y2="425"/>
        <!-- Vertical lines -->
        <line x1="25" y1="25" x2="25" y2="425"/>
        <line x1="75" y1="25" x2="75" y2="425"/>
        <line x1="125" y1="25" x2="125" y2="425"/>
        <line x1="175" y1="25" x2="175" y2="425"/>
        <line x1="225" y1="25" x2="225" y2="425"/>
        <line x1="275" y1="25" x2="275" y2="425"/>
        <line x1="325" y1="25" x2="325" y2="425"/>
        <line x1="375" y1="25" x2="375" y2="425"/>
        <line x1="425" y1="25" x2="425" y2="425"/>
    </g>
    <!-- Add stones dynamically here -->
</svg>
